# AST/ASF file generated using VICON BodyLanguage
# -----------------------------------------------
:version 1.10
:name VICON
:units
  mass 1.0
  length 0.45
  angle deg
:documentation
   .ast/.asf automatically generated from VICON data using
   VICON BodyBuilder and BodyLanguage model FoxedUp or BRILLIANT.MOD
:root
   order TX TY TZ RX RY RZ
   axis XYZ
   position 0 0 0  
   orientation 0 0 0 
:bonedata
  begin
     id 1 
     name lhipjoint
     direction 0.673618 -0.716094 0.182886 
     length 2.63917 
     axis 0 0 0  XYZ
  end
  begin
     id 2 
     name lfemur
     direction 0.34202 -0.939693 0  
     length 7.41015  
     axis 0 0 20  XYZ
    dof rx ry rz
    limits (-160.0 20.0)
           (-70.0 70.0)
           (-60.0 70.0)
  end
  begin
     id 3 
     name ltibia
     direction 0.34202 -0.939693 0   
     length 7.92551   
     axis 0 0 20   XYZ
    dof rx
    limits (-10.0 170.0)
  end
  begin
     id 4 
     name lfoot
     direction 0.0786834 -0.216181 0.973178   
     length 2.28657   
     axis -90 7.62852e-016 20   XYZ
    dof rx rz
    limits (-45.0 90.0)
           (-70.0 20.0)
  end
  begin
     id 5 
     name ltoes
     direction 1.53562e-011 -4.21928e-011 1   
     length 1.14687   
     axis -90 7.62852e-016 20   XYZ
    dof rx
    limits (-90.0 20.0)
  end
  begin
     id 6 
     name rhipjoint
     direction -0.630561 -0.752002 0.192056   
     length 2.51315  
     axis 0 0 0  XYZ 
  end
  begin
     id 7 
     name rfemur
     direction -0.34202 -0.939693 0   
     length 7.61317   
     axis 0 0 -20   XYZ
    dof rx ry rz
    limits (-160.0 20.0)
           (-70.0 70.0)
           (-70.0 60.0)
  end
  begin
     id 8 
     name rtibia
     direction -0.34202 -0.939693 0   
     length 7.99175   
     axis 0 0 -20   XYZ
    dof rx
    limits (-10.0 170.0)
 end
 begin
     id 9 
     name rfoot
     direction -0.109419 -0.300625 0.947445   
     length 2.34126  
     axis -90 -7.62852e-016 -20   XYZ
    dof rx rz
    limits (-45.0 90.0)
           (-20.0 70.0)
  end
  begin
     id 10 
     name rtoes
     direction -1.53603e-011 -4.21913e-011 1   
     length 1.16381   
     axis -90 -7.62852e-016 -20   XYZ
    dof rx
    limits (-90.0 20.0)
  end
  begin
     id 11 
     name lowerback
     direction 0.0168077 0.993836 -0.109583   
     length 2.02862   
     axis 0 0 0   XYZ
    dof rx ry rz
    limits (-20.0 45.0)
           (-30.0 30.0)
           (-30.0 30.0)
  end
  begin
     id 12 
     name upperback
     direction 0.0170634 0.999844 0.00461437   
     length 2.03044   
     axis 0 0 0   XYZ
    dof rx ry rz
    limits (-20.0 45.0)
           (-30.0 30.0)
           (-30.0 30.0)
  end
  begin
     id 13 
     name thorax
     direction 0.00813305 0.998421 0.0555897   
     length 2.05762   
     axis 0 0 0   XYZ
    dof rx ry rz
    limits (-20.0 45.0)
           (-30.0 30.0)
           (-30.0 30.0)
  end
  begin
     id 14 
     name lowerneck
     direction -0.00127547 0.992596 0.121455   
     length 1.7173   
     axis 0 0 0   XYZ
    dof rx ry rz
    limits (-20.0 45.0)
           (-30.0 30.0)
           (-30.0 30.0)
  end
  begin
     id 15 
     name upperneck
     direction 0.0144921 0.991716 -0.127628   
     length 1.73779   
     axis 0 0 0   XYZ
    dof rx ry rz
    limits (-20.0 45.0)
           (-30.0 30.0)
           (-30.0 30.0)
  end
  begin
     id 16
     name head
     direction 0.00161449 0.998411 -0.0563246  
     length 1.74399  
     axis 0 0 0   XYZ
    dof rx ry rz
    limits (-20.0 45.0)
           (-30.0 30.0)
           (-30.0 30.0)
  end
  begin
     id 17 
     name lclavicle
     direction 0.952642 0.284773 -0.106664  
     length 3.53079  
     axis 0 0 0   XYZ
    dof ry rz
    limits (-20.0 10.0)
           (0.0 20.0)
  end
  begin
     id 18 
     name lhumerus
     direction 1 -4.48971e-011 1.90155e-027   
     length 5.06507   
     axis 180 -30 -90   XYZ
    dof rx ry rz
    limits (-60.0 90.0)
           (-90.0 90.0)
           (-90.0 90.0)
  end
  begin
     id 19
     name lradius
     direction 1 -4.48978e-011 1.0994e-027   
     length 3.60196   
     axis 180 -30 -90   XYZ
    dof rx
    limits (-10.0 170.0)
  end
  begin
     id 20
     name lwrist
     direction 1 -4.48947e-011 2.56952e-028   
     length 1.80098   
     axis -5.12785e-016 90 90   XYZ
    dof ry
    limits (-180.0 0.0)
 end
  begin
     id 21 
     name lhand
     direction 1 -4.49009e-011 5.13905e-028   
     length 0.450346   
     axis -3.27915e-016 90 90   XYZ
    dof rx rz
    limits (-90.0 90.0)
           (-45.0 45.0)
  end
  begin
     id 22 
     name lfingers
     direction 1 -4.48975e-011 1.02781e-027   
     length 0.363081   
     axis -6.5583e-016 90 90   XYZ
    dof rx
    limits (0.0 90.0)
  end
  begin
     id 23
     name lthumb
     direction 0.707107 -6.34941e-011 0.707107   
     length 0.521313   
     axis -90 45 2.85299e-015   XYZ
    dof rx rz
    limits (-45.0 45.0)
           (-45.0 45.0)
  end
  begin
     id 24 
     name rclavicle
     direction -0.955889 0.219434 -0.195256   
     length 3.66318  
     axis 0 0 0   XYZ 
    dof ry rz
    limits (-10.0 20.0)
           (-20.0 0.0)
  end
  begin
     id 25 
     name rhumerus
     direction -1 -4.48973e-011 1.65154e-027  
     length 5.36394   
     axis 180 30 90   XYZ
    dof rx ry rz
    limits (-90.0 60.0)
           (-90.0 90.0)
           (-90.0 90.0)
  end
  begin
     id 26 
     name rradius
     direction -1 -4.4898e-011 3.26231e-028   
     length 3.58035   
     axis 180 30 90   XYZ
    dof rx
    limits (-10.0 170.0)
  end
  begin
     id 27 
     name rwrist
     direction -1 -4.4894e-011 2.56952e-028   
     length 1.79017   
     axis -5.12785e-016 -90 -90   XYZ
    dof ry
    limits (-180.0 0.0)
  end
  begin
     id 28
     name rhand
     direction -1 -4.48999e-011 5.13905e-028   
     length 0.663747   
     axis -3.27915e-016 -90 -90   XYZ
    dof rx rz
    limits (-90.0 90.0)
           (-45.0 45.0)
  end
  begin
     id 29
     name rfingers
     direction -1 -4.49025e-011 1.02781e-027   
     length 0.53513   
     axis -6.5583e-016 -90 -90   XYZ
    dof rx
    limits (0.0 90.0)
  end
  begin
     id 30
     name rthumb
     direction -0.707107 -6.34891e-011 0.707107   
     length 0.768342   
     axis -90 -45 -2.85299e-015   XYZ
    dof rx rz
    limits (-45.0 45.0)
           (-45.0 45.0)
  end
:hierarchy
  begin
    root lhipjoint rhipjoint lowerback
    lhipjoint lfemur
    lfemur ltibia
    ltibia lfoot
    lfoot ltoes
    rhipjoint rfemur
    rfemur rtibia
    rtibia rfoot
    rfoot rtoes
    lowerback upperback
    upperback thorax
    thorax lowerneck lclavicle rclavicle
    lowerneck upperneck
    upperneck head
    lclavicle lhumerus
    lhumerus lradius
    lradius lwrist
    lwrist lhand lthumb
    lhand lfingers
    rclavicle rhumerus
    rhumerus rradius
    rradius rwrist
    rwrist rhand rthumb
    rhand rfingers
  end

#!OML:ASF F:\VICON\USERDATA\INSTALL\rory3\rory3.ASF
:FULLY-SPECIFIED
:DEGREES
47
root 4.96414 17.9544 -12.3137 -3.46417 -3.74632 0.361331
lowerback 11.2164 0.377483 -1.07581
upperback 0.301156 0.42601 1.02863
thorax -5.99786 0.254092 1.61766
lowerneck -15.9157 -3.04127 -2.10174
upperneck 23.2237 -3.54005 -0.702785
head 10.0495 -1.90795 -0.364386
rclavicle 3.67752e-015 -1.23246e-014
rhumerus -31.2253 -21.4803 -76.0673
rradius 24.6511
rwrist 6.25418
rhand -17.5932 23.8196
rfingers 7.12502
rthumb 8.66292 -5.9826
lclavicle 3.67752e-015 -1.23246e-014
lhumerus -34.2435 3.28756 81.7828
lradius 25.3307
lwrist 5.31127
lhand -24.8706 30.157
lfingers 7.12502
lthumb 1.63658 60.1305
rfemur -23.0533 0.577423 21.2371
rtibia 74.2257
rfoot -5.57066 -2.04582
rtoes 6.83545
lfemur -9.45911 -0.768993 -25.6506
ltibia 29.1635
lfoot -12.6713 1.59104
ltoes 2.06774
48
root 4.97303 17.9425 -12.1431 -3.44176 -3.5106 0.685513
lowerback 11.0692 0.207263 -1.38163
upperback 0.279919 0.1644 1.06936
thorax -5.92908 0.134512 1.87535
lowerneck -15.623 -2.96851 -2.36296
upperneck 23.1087 -3.39628 -0.624274
head 9.95924 -1.85617 -0.268064
rclavicle 9.62863e-015 1.51076e-014
rhumerus -31.395 -21.2256 -75.9739
rradius 24.553
rwrist 5.98838
rhand -18.4019 23.1422
rfingers 7.12502
rthumb 7.88249 -6.69082
lclavicle 9.62863e-015 1.51076e-014
lhumerus -34.2024 3.00949 81.8925
lradius 25.7899
lwrist 5.37837
lhand -24.7469 30.2443
lfingers 7.12502
lthumb 1.756 60.2168
rfemur -24.0874 0.253222 20.8209
rtibia 73.5077
rfoot -6.67509 -2.12753
rtoes 4.87871
lfemur -8.8636 -0.704855 -26.1264
ltibia 29.1954
lfoot -13.1925 1.69355
ltoes 1.19413
49
root 4.97685 17.9325 -11.9725 -3.4379 -3.35475 0.718239
lowerback 11.2004 0.0659152 -1.4556
upperback 0.197008 -0.0264937 1.19366
thorax -6.08229 0.0469938 2.07982
lowerneck -15.5171 -2.98501 -2.55374
upperneck 23.0373 -3.36744 -0.644752
head 9.91747 -1.8623 -0.237203
rclavicle 2.48481e-016 5.1684e-015
rhumerus -31.7344 -20.7511 -75.9213
rradius 24.7214
rwrist 5.52689
rhand -19.0105 22.1451
rfingers 7.12502
rthumb 7.29504 -7.70919
lclavicle 2.48481e-016 5.1684e-015
lhumerus -34.2116 2.85741 81.9735
lradius 26.419
lwrist 4.9782
lhand -23.9275 31.0663
lfingers 7.12502
lthumb 2.54742 61.0308
rfemur -25.0806 0.0612612 20.8161
rtibia 72.622
rfoot -7.57616 -2.33301
rtoes 3.22011
lfemur -8.25371 -0.720932 -26.2363
ltibia 29.193
lfoot -13.5932 1.75873
ltoes 1.91047
50
root 4.97372 17.921 -11.8091 -3.45535 -3.24389 0.521945
lowerback 11.4644 0.074659 -1.22164
upperback 0.226103 0.0143266 1.20971
thorax -6.20174 0.0613392 1.95922
lowerneck -15.7308 -3.10056 -2.28823
upperneck 22.8895 -3.56736 -0.745797
head 9.89876 -1.94214 -0.344756
rclavicle 6.93262e-015 -9.93923e-015
rhumerus -31.9864 -20.7058 -76.0771
rradius 25.0729
rwrist 4.95342
rhand -19.1495 21.718
rfingers 7.12502
rthumb 7.1608 -8.1409
lclavicle 6.93262e-015 -9.93923e-015
lhumerus -33.8487 2.02607 82.0392
lradius 27.3671
lwrist 3.91433
lhand -21.5418 35.4441
lfingers 7.12502
lthumb 4.85121 65.3685
rfemur -26.0368 -0.0781374 21.1197
rtibia 71.5869
rfoot -8.20659 -2.48496
rtoes 2.31044
lfemur -7.67251 -0.842312 -26.0676
ltibia 29.2574
lfoot -14.0343 1.93928
ltoes 7.03929
